HIERARCHY
ROOT Hips
{
	OFFSET 0.00000 0.00000 0.00000
	CHANNELS 6 Xposition Yposition Zposition Yrotation Zrotation Xrotation 
	JOINT Lumbar
	{
		OFFSET 0 0 0
		CHANNELS 3 Zrotation Xrotation Yrotation
		JOINT Neck
		{
			OFFSET 0.00 0.2701 0.00
			CHANNELS 3 Zrotation Xrotation Yrotation
			End Site
			{
				OFFSET 0.00 0.1379 0.00
			}
		}
		JOINT RightShoulder
		{
			OFFSET 0.0119 0.2289 0.1181
			CHANNELS 3 Zrotation Xrotation Yrotation
			JOINT RightElbow
			{
				OFFSET 0.00 -0.1475 0.00
				CHANNELS 2 Zrotation Yrotation
				JOINT RightWrist
				{
					OFFSET 0.00 -0.1605 0.00
					CHANNELS 2 Zrotation Xrotation
					End Site
					{
						OFFSET 0.0040 -0.1068 0.0006
					}
				}
			}
		}
		JOINT LeftShoulder
		{
			OFFSET 0.0119 0.2289 -0.1181
			CHANNELS 3 Zrotation Xrotation Yrotation
			JOINT LeftElbow
			{
				OFFSET 0.00 -0.1475 0.00
				CHANNELS 2 Zrotation Yrotation
				JOINT LeftWrist
				{
					OFFSET 0.00 -0.1605 0.00
					CHANNELS 2 Zrotation Xrotation
					End Site
					{
						OFFSET 0.0040 -0.1068 -0.0006
					}
				}
			}
		}
	}
	JOINT RightHip
	{
		OFFSET 0.0316 -0.0424 0.0458
		CHANNELS 3 Zrotation Xrotation Yrotation
		JOINT RightKnee
		{
			OFFSET 0.00 -0.2438 0.00
			CHANNELS 1 Zrotation
			JOINT RightAnkle
			{
				OFFSET 0.00 -0.2449 0.00
				CHANNELS 3 Zrotation Xrotation Yrotation
				End Site
				{
					OFFSET 0.1237 -0.0542 0.0051
				}
			}
		}
	}
	JOINT LeftHip
	{
		OFFSET 0.0316 -0.0424 -0.0458
		CHANNELS 3 Zrotation Xrotation Yrotation
		JOINT LeftKnee
		{
			OFFSET 0.00 -0.2438 0.00
			CHANNELS 1 Zrotation
			JOINT LeftAnkle
			{
				OFFSET 0.00 -0.2449 0.00
				CHANNELS 3 Zrotation Xrotation Yrotation
				End Site
				{
					OFFSET 0.1237 -0.0542 -0.0051
				}
			}
		}
	}
}
MOTION
Frames: 13
Frame Time: 0.02
0.516 -0.20965 0.21782 -185.88083 36.75082 -2.5457 -22.02778 4.73592 -5.39048 -40.2234 5.03984 -0.83079 41.18487 2.53442 56.71565 23.22412 65.32131 44.4468 -4.97845 42.21273 11.26596 -64.13607 25.69448 -73.34901 46.64035 4.30214 118.4698 -8.00233 -1.91971 -134.61131 -21.10605 -1.00735 -1.66299 117.87624 3.99947 0.0395 -134.00985 -19.90076 2.37021 2.45302
0.51574 -0.20932 0.21773 -185.92856 37.08334 -2.43013 -22.00361 4.59236 -5.5703 -40.4294 5.20107 -0.83079 40.96159 2.93904 55.06132 22.63385 65.91917 44.19894 -4.42814 42.04687 11.23805 -63.82496 25.265 -72.95142 46.19048 4.31333 117.93873 -7.93464 -2.00533 -134.38957 -21.23932 -1.02113 -1.67665 117.51306 3.97954 0.11841 -133.79257 -20.14938 2.34578 2.45007
0.51536 -0.20888 0.21758 -186.00551 37.41677 -2.25899 -22.04947 4.4035 -5.75828 -40.61465 5.36871 -0.83079 40.71945 3.3452 53.26151 22.10487 66.59238 43.99729 -3.83176 41.85815 11.23286 -63.43497 24.90373 -72.51253 45.79508 4.3239 117.41233 -7.87033 -2.09664 -134.17713 -21.34247 -1.03952 -1.69151 117.1796 3.96893 0.21045 -133.57496 -20.38885 2.31494 2.44238
0.51505 -0.2085 0.21746 -186.06814 37.74511 -2.11722 -22.06221 4.2402 -5.93769 -40.80262 5.53053 -0.83079 40.49294 3.73867 51.58392 21.56137 67.20682 43.78277 -3.27524 41.68582 11.2199 -63.10021 24.52328 -72.10045 45.38396 4.33612 116.89379 -7.80429 -2.18273 -133.96644 -21.45625 -1.0552 -1.70531 116.8383 3.95445 0.29116 -133.3643 -20.62542 2.28787 2.43703
0.51468 -0.20807 0.21732 -186.13575 38.09481 -1.95821 -22.08055 4.05547 -6.138 -41.02392 5.70769 -0.83079 40.23682 4.1853 49.6645 20.95645 67.93067 43.52981 -2.6328 41.48767 11.19537 -62.68463 24.08805 -71.65187 44.92484 4.34278 116.3299 -7.73786 -2.28101 -133.73032 -21.58203 -1.07349 -1.7212 116.47041 3.9381 0.39331 -133.12473 -20.89181 2.25717 2.4309
0.5144 -0.20772 0.2172 -186.19982 38.3992 -1.82159 -22.10381 3.90463 -6.29641 -41.1687 5.85253 -0.83079 40.0378 4.52078 48.21527 20.49568 68.44301 43.36894 -2.16014 41.33788 11.20021 -62.41724 23.78435 -71.27066 44.58206 4.3607 115.86304 -7.67369 -2.35509 -133.5494 -21.67596 -1.08746 -1.73309 116.16611 3.9281 0.45472 -132.9452 -21.09405 2.23248 2.42526
0.5144 -0.20761 0.21712 -186.24528 38.58314 -1.76379 -22.12376 3.86046 -6.33899 -41.11016 5.91555 -0.83079 40.00143 4.54665 48.11126 20.42194 68.34372 43.45771 -2.17477 41.3294 11.28609 -62.5911 23.83533 -71.08366 44.5519 4.41103 115.66016 -7.61288 -2.35775 -133.51931 -21.68977 -1.0879 -1.73327 116.02872 3.9318 0.3963 -132.93387 -21.11952 2.22635 2.42229
0.51449 -0.20759 0.21706 -186.28635 38.72038 -1.72985 -22.14627 3.85171 -6.33876 -40.97413 5.9441 -0.83079 40.02308 4.46065 48.48426 20.49129 68.02975 43.63702 -2.36145 41.37006 11.39997 -62.91445 24.01567 -70.96664 44.63761 4.47254 115.55572 -7.5548 -2.33623 -133.54439 -21.67259 -1.08394 -1.72945 115.95494 3.94186 0.29729 -132.98265 -21.08104 2.22644 2.41996
0.51453 -0.20752 0.21699 -186.33045 38.87556 -1.68271 -22.16737 3.82547 -6.35682 -40.871 5.98184 -0.83079 40.0179 4.42703 48.63227 20.49313 67.8191 43.77112 -2.4656 41.3869 11.49758 -63.16106 24.13213 -70.8191 44.66857 4.52804 115.40844 -7.49693 -2.3277 -133.54374 -21.66943 -1.0823 -1.7277 115.85333 3.95006 0.21975 -133.0024 -21.07307 2.22341 2.41724
0.51458 -0.20747 0.21692 -186.37131 39.04452 -1.64342 -22.1917 3.80333 -6.37993 -40.77696 6.04598 -0.83079 40.01403 4.38704 48.80954 20.50701 67.58681 43.92374 -2.58638 41.40925 11.6107 -63.44216 24.27206 -70.66444 44.70976 4.58714 115.25317 -7.43288 -2.31105 -133.54603 -21.66553 -1.07941 -1.72494 115.74813 3.9543 0.13005 -133.02916 -21.05879 2.22135 2.41476
0.51464 -0.20741 0.21685 -186.41736 39.17383 -1.59436 -22.20932 3.78187 -6.38245 -40.64587 6.04837 -0.83079 40.02147 4.33366 49.0413 20.52964 67.34771 44.05891 -2.71398 41.43206 11.69816 -63.68786 24.39334 -70.54203 44.75688 4.64179 115.13798 -7.38251 -2.30539 -133.55536 -21.65612 -1.07806 -1.72331 115.66514 3.96808 0.05569 -133.05582 -21.04245 2.21886 2.41201
0.51471 -0.20733 0.21677 -186.47972 39.20343 -1.51141 -22.20443 3.75241 -6.33688 -40.4311 5.8754 -0.83079 40.04576 4.27117 49.30621 20.53616 67.14051 44.1218 -2.81937 41.44452 11.70539 -63.80037 24.4282 -70.48996 44.78857 4.67781 115.10873 -7.36756 -2.33684 -133.56919 -21.64005 -1.08186 -1.72576 115.628 4.00741 0.03507 -133.06591 -21.03709 2.21359 2.40839
0.51479 -0.20725 0.21669 -186.54704 39.19492 -1.41846 -22.19284 3.72303 -6.27232 -40.18192 5.64378 -0.83079 40.0795 4.19896 49.61048 20.54725 66.93365 44.16409 -2.92581 41.45573 11.68617 -63.8723 24.44013 -70.46854 44.82256 4.70949 115.11665 -7.3666 -2.38004 -133.58849 -21.61947 -1.08737 -1.72947 115.61094 4.05591 0.03092 -133.07424 -21.03162 2.20773 2.40452
